<?xml version="1.0" encoding="utf-8"?>
<!-- Generator: Adobe Illustrator 18.1.0, SVG Export Plug-In . SVG Version: 6.00 Build 0)  -->
<svg version="1.1" id="Layer_1" xmlns="http://www.w3.org/2000/svg" xmlns:xlink="http://www.w3.org/1999/xlink" x="0px" y="0px"
	 viewBox="-255 347 100 100" enable-background="new -255 347 100 100" xml:space="preserve">
<path fill="none" stroke="#000000" stroke-width="5" stroke-miterlimit="10" d="M-155,386.3c0-3.3-2.6-6-5.9-6.2c0,0,0,0,0,0h-28.6
	l-9.6-28.8c0,0,0,0,0,0c-0.8-2.5-3.1-4.3-5.9-4.3c-2.9,0-5.4,2-6,4.8c0,0,0,0,0,0l-9.5,28.3h-28.1c0,0-0.1,0-0.1,0
	c-3.4,0-6.2,2.8-6.2,6.2c0,1.9,0.9,3.5,2.2,4.7c0,0,0,0,0,0l24.1,18.5l-9,28.7c-0.4,0.8-0.6,1.7-0.6,2.6c0,3.4,2.8,6.2,6.2,6.2
	c1.4,0,2.7-0.5,3.7-1.3c0,0,0,0,0,0l23.4-17.9l22.5,17.3c1.1,1.1,2.7,1.8,4.4,1.8c3.4,0,6.2-2.8,6.2-6.2c0-0.7-0.2-1.5-0.4-2.1
	c0,0,0,0,0,0l-9.1-29l23.7-18.3c0,0,0,0,0,0C-156,390.2-155,388.4-155,386.3z"/>
</svg>
